<svg version="1.1" id="Layer_1" xmlns="http://www.w3.org/2000/svg" xmlns:xlink="http://www.w3.org/1999/xlink" x="0px" y="0px"
	 width="100%" viewBox="0 0 500 500" enable-background="new 0 0 500 500" xml:space="preserve">
<path fill="transparent" opacity="1.000000" stroke="none" 
	d="
M282.000000,501.000000 
	C188.000015,501.000000 94.500046,501.000000 1.000050,501.000000 
	C1.000033,334.333405 1.000033,167.666794 1.000017,1.000140 
	C167.666565,1.000093 334.333130,1.000093 500.999756,1.000046 
	C500.999847,167.666519 500.999847,334.333038 500.999939,500.999786 
	C428.166656,501.000000 355.333344,501.000000 282.000000,501.000000 
M365.001160,286.001129 
	C365.001160,286.001129 364.992981,285.939117 364.474548,286.092438 
	C364.296082,286.392700 364.117584,286.692963 364.001160,287.001129 
	C364.001160,287.001129 363.992981,286.939117 363.474579,287.092438 
	C363.296082,287.392700 363.117584,287.692963 363.001160,288.001129 
	C363.001160,288.001129 362.992981,287.939117 362.474579,288.092438 
	C362.296112,288.392700 362.117615,288.692963 362.001160,289.001129 
	C362.001160,289.001129 361.992981,288.939117 361.474579,289.092438 
	C361.296082,289.392700 361.117615,289.692963 361.001160,290.001129 
	C361.001160,290.001129 360.992981,289.939117 360.474579,290.092438 
	C360.296112,290.392700 360.117615,290.692963 360.001160,291.001129 
	C360.001160,291.001129 359.992981,290.939117 359.474548,291.092438 
	C359.296082,291.392700 359.117584,291.692963 359.001160,292.001129 
	C359.001160,292.001129 358.992981,291.939117 358.474609,292.092438 
	C358.296112,292.392700 358.117615,292.692963 358.001160,293.001129 
	C358.001160,293.001129 357.992981,292.939117 357.474579,293.092438 
	C357.296112,293.392700 357.117615,293.692963 357.001160,294.001129 
	C357.001160,294.001129 356.992981,293.939117 356.474579,294.092438 
	C356.296082,294.392700 356.117584,294.692963 356.001160,295.001129 
	C356.001160,295.001129 355.992981,294.939117 355.474548,295.092438 
	C355.296082,295.392700 355.117584,295.692963 355.001160,296.001129 
	C355.001160,296.001129 354.992981,295.939117 354.474579,296.092438 
	C354.296082,296.392700 354.117615,296.692963 354.001160,297.001129 
	C354.001160,297.001129 353.992981,296.939117 353.474579,297.092438 
	C353.296112,297.392700 353.117615,297.692963 353.001160,298.001129 
	C353.001160,298.001129 352.992981,297.939117 352.474579,298.092438 
	C352.296082,298.392700 352.117615,298.692963 352.001160,299.001129 
	C352.001160,299.001129 351.992981,298.939117 351.474609,299.092438 
	C351.296112,299.392700 351.117615,299.692963 351.001160,300.001129 
	C351.001160,300.001129 350.992981,299.939117 350.474548,300.092438 
	C350.296082,300.392700 350.117584,300.692963 350.001160,301.001129 
	C350.001160,301.001129 349.992981,300.939117 349.474579,301.092438 
	C349.296082,301.392700 349.117615,301.692963 349.001160,302.001129 
	C349.001160,302.001129 348.992981,301.939117 348.474579,302.092438 
	C348.296112,302.392700 348.117615,302.692963 348.001160,303.001129 
	C348.001160,303.001129 347.992981,302.939117 347.474579,303.092438 
	C347.296082,303.392700 347.117615,303.692963 347.001160,304.001129 
	C347.001160,304.001129 346.992981,303.939117 346.474579,304.092438 
	C346.296082,304.392700 346.117584,304.692963 346.001160,305.001129 
	C346.001160,305.001129 345.992981,304.939117 345.474548,305.092438 
	C345.296082,305.392700 345.117584,305.692963 345.001160,306.001129 
	C345.001160,306.001129 344.992981,305.939117 344.474579,306.092438 
	C344.296082,306.392700 344.117584,306.692963 344.001160,307.001129 
	C344.001160,307.001129 343.992981,306.939117 343.474579,307.092438 
	C343.296112,307.392700 343.117615,307.692963 343.001160,308.001129 
	C343.001160,308.001129 342.992981,307.939117 342.474579,308.092438 
	C342.296082,308.392700 342.117615,308.692963 342.001160,309.001129 
	C342.001160,309.001129 341.992981,308.939117 341.474579,309.092438 
	C341.296082,309.392700 341.117584,309.692963 341.001160,310.001129 
	C341.001160,310.001129 340.992981,309.939117 340.474579,310.092438 
	C340.296082,310.392700 340.117615,310.692963 340.001160,311.001129 
	C340.001160,311.001129 339.992981,310.939117 339.474609,311.092438 
	C339.296112,311.392700 339.117615,311.692963 339.001160,312.001129 
	C339.001160,312.001129 338.992981,311.939117 338.474579,312.092438 
	C338.296112,312.392700 338.117615,312.692963 338.001160,313.001129 
	C338.001160,313.001129 337.992981,312.939117 337.474579,313.092438 
	C337.296082,313.392700 337.117584,313.692963 337.001160,314.001129 
	C337.001160,314.001129 336.992981,313.939117 336.474548,314.092438 
	C336.296082,314.392700 336.117584,314.692963 336.001160,315.001129 
	C336.001160,315.001129 335.992981,314.939117 335.474579,315.092438 
	C335.296082,315.392700 335.117615,315.692963 335.001160,316.001129 
	C335.001160,316.001129 334.992981,315.939117 334.474579,316.092438 
	C334.296112,316.392700 334.117615,316.692963 334.001160,317.001129 
	C334.001160,317.001129 333.992981,316.939117 333.474579,317.092438 
	C333.296082,317.392700 333.117615,317.692963 333.001160,318.001129 
	C333.001160,318.001129 332.992981,317.939117 332.474579,318.092438 
	C332.296082,318.392700 332.117584,318.692963 332.001160,319.001129 
	C332.001160,319.001129 331.992981,318.939117 331.474548,319.092438 
	C331.296082,319.392700 331.117584,319.692963 331.001160,320.001129 
	C331.001160,320.001129 330.992981,319.939117 330.474579,320.092438 
	C330.296082,320.392700 330.117615,320.692963 330.001160,321.001129 
	C330.001160,321.001129 329.992981,320.939117 329.474579,321.092438 
	C329.296112,321.392700 329.117615,321.692963 329.001160,322.001129 
	C329.001160,322.001129 328.992981,321.939117 328.474579,322.092438 
	C328.296082,322.392700 328.117615,322.692963 328.001160,323.001129 
	C328.001160,323.001129 327.992981,322.939117 327.474579,323.092438 
	C327.296082,323.392700 327.117584,323.692963 327.001160,324.001129 
	C327.001160,324.001129 326.992981,323.939117 326.474579,324.092438 
	C326.296082,324.392700 326.117615,324.692963 326.001160,325.001129 
	C326.001160,325.001129 325.992981,324.939117 325.474609,325.092438 
	C325.296112,325.392700 325.117615,325.692963 325.001160,326.001129 
	C325.001160,326.001129 324.992981,325.939117 324.474579,326.092438 
	C324.296112,326.392700 324.117615,326.692963 324.001160,327.001129 
	C324.001160,327.001129 323.992981,326.939117 323.474579,327.092438 
	C323.296082,327.392700 323.117615,327.692963 323.001160,328.001129 
	C323.001160,328.001129 322.992981,327.939117 322.474579,328.092438 
	C322.296082,328.392700 322.117584,328.692963 322.001160,329.001129 
	C322.001160,329.001129 321.992981,328.939117 321.474579,329.092438 
	C321.296082,329.392700 321.117615,329.692963 321.001160,330.001129 
	C321.001160,330.001129 320.992981,329.939117 320.474609,330.092438 
	C320.296112,330.392700 320.117615,330.692963 320.001160,331.001129 
	C320.001160,331.001129 319.992981,330.939117 319.474579,331.092438 
	C319.296112,331.392700 319.117615,331.692963 319.001160,332.001129 
	C319.001160,332.001129 318.992981,331.939117 318.474579,332.092438 
	C318.296082,332.392700 318.117615,332.692963 318.001160,333.001129 
	C318.001160,333.001129 317.992981,332.939117 317.474548,333.092438 
	C317.296082,333.392700 317.117584,333.692963 317.001160,334.001129 
	C317.001160,334.001129 316.992981,333.939117 316.474579,334.092438 
	C316.296082,334.392700 316.117615,334.692963 316.001160,335.001129 
	C316.001160,335.001129 315.992981,334.939117 315.474579,335.092438 
	C315.296112,335.392700 315.117615,335.692963 315.001160,336.001129 
	C315.001160,336.001129 314.992981,335.939117 314.474579,336.092438 
	C314.296082,336.392700 314.117615,336.692963 314.001160,337.001129 
	C314.001160,337.001129 313.992981,336.939117 313.474579,337.092438 
	C313.296082,337.392700 313.117584,337.692963 313.001160,338.001129 
	C313.001160,338.001129 312.992981,337.939117 312.474548,338.092438 
	C312.296082,338.392700 312.117584,338.692963 312.001160,339.001129 
	C312.001160,339.001129 311.992981,338.939117 311.474609,339.092438 
	C311.296112,339.392700 311.117615,339.692963 311.001160,340.001129 
	C311.001160,340.001129 310.992981,339.939117 310.474579,340.092438 
	C310.296112,340.392700 310.117615,340.692963 310.001160,341.001129 
	C310.001160,341.001129 309.992981,340.939117 309.474579,341.092438 
	C309.296082,341.392700 309.117615,341.692963 309.001160,342.001129 
	C309.001160,342.001129 308.992981,341.939117 308.474579,342.092438 
	C308.296082,342.392700 308.117584,342.692963 308.001160,343.001129 
	C308.001160,343.001129 307.992981,342.939117 307.474579,343.092438 
	C307.296112,343.392700 307.117615,343.692963 307.001160,344.001129 
	C307.001160,344.001129 306.992981,343.939117 306.474609,344.092438 
	C306.296112,344.392700 306.117615,344.692963 306.001160,345.001129 
	C306.001160,345.001129 305.992981,344.939117 305.474548,345.092438 
	C305.296082,345.392700 305.117584,345.692963 305.001160,346.001129 
	C305.001160,346.001129 304.992981,345.939117 304.474579,346.092438 
	C304.296082,346.392700 304.117615,346.692963 304.001160,347.001129 
	C304.001160,347.001129 303.992981,346.939117 303.474579,347.092438 
	C303.296082,347.392700 303.117584,347.692963 303.001160,348.001129 
	C303.001160,348.001129 302.992981,347.939117 302.474579,348.092438 
	C302.296082,348.392700 302.117615,348.692963 302.001160,349.001129 
	C302.001160,349.001129 301.992981,348.939117 301.474609,349.092438 
	C301.296112,349.392700 301.117615,349.692963 301.001160,350.001129 
	C301.001160,350.001129 300.992981,349.939117 300.474579,350.092438 
	C300.296112,350.392700 300.117615,350.692963 300.001160,351.001129 
	C300.001160,351.001129 299.992981,350.939117 299.474579,351.092438 
	C299.296082,351.392700 299.117615,351.692963 299.001160,352.001129 
	C299.001160,352.001129 298.992981,351.939117 298.474579,352.092438 
	C298.296082,352.392700 298.117584,352.692963 298.001160,353.001129 
	C298.001160,353.001129 297.992981,352.939117 297.474579,353.092438 
	C297.296082,353.392700 297.117615,353.692963 297.001160,354.001129 
	C297.001160,354.001129 296.992981,353.939117 296.474548,354.092438 
	C296.296051,354.392700 296.117584,354.692963 296.001160,355.001129 
	C296.001160,355.001129 295.992981,354.939117 295.474518,355.092438 
	C295.296051,355.392700 295.117584,355.692963 295.001251,356.001221 
	C295.001251,356.001221 294.993317,355.939087 294.475372,356.091797 
	C294.295380,356.391022 294.115387,356.690247 293.997162,356.994263 
	C293.997162,356.994263 293.973724,356.936920 293.336853,357.159515 
	C282.396088,368.089600 271.435425,378.999908 260.545044,389.979980 
	C259.444183,391.089874 258.767792,392.620758 257.284698,394.342743 
	C248.001297,412.776337 257.423492,434.984009 277.960968,438.986816 
	C290.993347,441.526794 304.221466,443.073700 317.373474,444.985413 
	C327.780670,446.498108 338.212921,447.838165 348.620911,449.345551 
	C361.294922,451.181122 373.953613,453.122284 386.621918,454.997803 
	C397.182251,456.561249 407.735657,458.178711 418.314117,459.609772 
	C423.941010,460.370972 429.723877,461.759552 435.242279,461.139038 
	C444.267395,460.124298 450.873932,454.132538 455.832703,446.953644 
	C458.641388,442.887573 461.785889,437.670258 461.539795,433.147736 
	C460.909302,421.560516 458.458008,410.073212 456.751434,398.543488 
	C454.827667,385.546478 452.918488,372.547333 451.009766,359.548096 
	C449.100281,346.543640 447.181213,333.540558 445.299561,320.532043 
	C443.511932,308.173798 441.248932,295.856628 440.114868,283.437378 
	C437.958954,259.828735 413.094421,247.773071 393.365875,258.023743 
	C392.890900,258.338684 392.415924,258.653656 391.994507,258.997559 
	C391.994507,258.997559 391.990631,258.936798 391.473358,259.092712 
	C391.295258,259.392975 391.117188,259.693237 391.001251,260.001221 
	C391.001251,260.001221 390.992981,259.939117 390.474548,260.092438 
	C390.296082,260.392700 390.117615,260.692963 390.001160,261.001129 
	C390.001160,261.001129 389.992981,260.939117 389.474518,261.092438 
	C389.296051,261.392700 389.117584,261.692963 389.001160,262.001129 
	C389.001160,262.001129 388.992981,261.939117 388.474579,262.092438 
	C388.296112,262.392700 388.117615,262.692963 388.001160,263.001129 
	C388.001160,263.001129 387.992981,262.939117 387.474609,263.092438 
	C387.296112,263.392700 387.117615,263.692963 387.001160,264.001129 
	C387.001160,264.001129 386.992981,263.939117 386.474579,264.092438 
	C386.296112,264.392700 386.117615,264.692963 386.001160,265.001129 
	C386.001160,265.001129 385.992981,264.939117 385.474579,265.092438 
	C385.296082,265.392700 385.117615,265.692963 385.001160,266.001129 
	C385.001160,266.001129 384.992981,265.939117 384.474579,266.092438 
	C384.296082,266.392700 384.117584,266.692963 384.001160,267.001129 
	C384.001160,267.001129 383.992981,266.939117 383.474609,267.092468 
	C383.296112,267.392731 383.117645,267.692993 383.001160,268.001129 
	C383.001160,268.001129 382.992981,267.939117 382.474579,268.092438 
	C382.296082,268.392700 382.117584,268.692963 382.001160,269.001129 
	C382.001160,269.001129 381.992981,268.939117 381.474579,269.092438 
	C381.296112,269.392700 381.117615,269.692963 381.001160,270.001129 
	C381.001160,270.001129 380.992981,269.939117 380.474579,270.092438 
	C380.296082,270.392700 380.117615,270.692963 380.001160,271.001129 
	C380.001160,271.001129 379.992981,270.939117 379.474579,271.092438 
	C379.296112,271.392700 379.117615,271.692963 379.001160,272.001129 
	C379.001160,272.001129 378.992981,271.939117 378.474609,272.092468 
	C378.296112,272.392731 378.117645,272.692993 378.001160,273.001129 
	C378.001160,273.001129 377.992981,272.939117 377.474579,273.092438 
	C377.296082,273.392700 377.117584,273.692963 377.001160,274.001129 
	C377.001160,274.001129 376.992981,273.939117 376.474579,274.092438 
	C376.296082,274.392700 376.117615,274.692963 376.001160,275.001129 
	C376.001160,275.001129 375.992981,274.939117 375.474579,275.092438 
	C375.296082,275.392700 375.117584,275.692963 375.001160,276.001129 
	C375.001160,276.001129 374.992981,275.939117 374.474579,276.092438 
	C374.296112,276.392700 374.117615,276.692963 374.001160,277.001129 
	C374.001160,277.001129 373.992981,276.939117 373.474548,277.092407 
	C373.296051,277.392670 373.117584,277.692932 373.001160,278.001129 
	C373.001160,278.001129 372.992981,277.939117 372.474579,278.092438 
	C372.296112,278.392700 372.117615,278.692963 372.001160,279.001129 
	C372.001160,279.001129 371.992981,278.939117 371.474579,279.092438 
	C371.296082,279.392700 371.117615,279.692963 371.001160,280.001129 
	C371.001160,280.001129 370.992981,279.939117 370.474579,280.092438 
	C370.296082,280.392700 370.117584,280.692963 370.001160,281.001129 
	C370.001160,281.001129 369.992981,280.939117 369.474579,281.092438 
	C369.296112,281.392700 369.117615,281.692963 369.001160,282.001129 
	C369.001160,282.001129 368.992981,281.939117 368.474579,282.092438 
	C368.296082,282.392700 368.117615,282.692963 368.001160,283.001129 
	C368.001160,283.001129 367.992981,282.939117 367.474579,283.092438 
	C367.296112,283.392700 367.117615,283.692963 367.001160,284.001129 
	C367.001160,284.001129 366.992981,283.939117 366.474579,284.092438 
	C366.296082,284.392700 366.117615,284.692963 366.001160,285.001129 
	C366.001160,285.001129 365.992981,284.939117 365.474579,285.092438 
	C365.296112,285.392700 365.117615,285.692963 365.001160,286.001129 
M110.824318,242.710953 
	C153.995499,199.530258 197.167587,156.350464 240.331940,113.162956 
	C241.260895,112.233513 242.101181,111.215454 243.570587,109.892914 
	C243.784363,109.258926 243.998123,108.624939 244.831696,107.615723 
	C244.990921,107.143456 245.116470,106.656563 245.314194,106.201012 
	C253.535172,87.260582 243.624268,67.178787 223.477112,63.854286 
	C208.667496,61.410545 193.821472,59.173862 178.964020,57.037086 
	C161.815552,54.570816 144.619125,52.436153 127.476021,49.934799 
	C110.356392,47.436871 93.284210,44.615028 76.173912,42.050793 
	C72.633781,41.520252 68.715424,40.488125 65.497948,41.449474 
	C58.445595,43.556641 51.559353,46.904293 47.410133,53.292820 
	C44.284702,58.105022 40.769428,63.637024 40.418674,69.042694 
	C39.933014,76.527512 42.239403,84.196747 43.377731,91.782883 
	C44.904484,101.957558 46.523430,112.118866 47.980885,122.303352 
	C49.463638,132.664658 50.718540,143.058701 52.218376,153.417404 
	C54.066502,166.181564 56.078903,178.921875 57.993710,191.676483 
	C59.690487,202.978821 60.524548,214.487122 63.208557,225.548019 
	C68.001328,245.299164 90.814575,254.120422 108.653511,244.018646 
	C109.181862,243.673401 109.710213,243.328171 110.824318,242.710953 
M57.003155,314.692932 
	C56.668682,317.609070 56.377872,320.531006 55.991859,323.440308 
	C54.621384,333.769287 53.278797,344.102600 51.811192,354.417999 
	C50.276173,365.207153 48.617588,375.978851 46.997330,386.755798 
	C45.475391,396.878815 43.922703,406.997223 42.403728,417.120697 
	C41.585175,422.576111 39.970337,428.071869 40.189968,433.489624 
	C40.633343,444.426880 53.448452,458.795166 64.686157,460.788757 
	C69.710846,461.680115 75.156075,460.538483 80.369164,459.952332 
	C88.463142,459.042206 96.529297,457.870392 104.593620,456.714386 
	C115.219368,455.191223 125.827065,453.542267 136.451553,452.010071 
	C146.441803,450.569275 156.452011,449.265869 166.438370,447.799316 
	C176.896820,446.263428 187.332199,444.570770 197.787231,443.010864 
	C207.107620,441.620239 216.565674,440.877014 225.737473,438.835083 
	C237.407181,436.237030 244.890976,427.964813 247.402832,416.789856 
	C249.698639,406.576080 248.212585,396.535736 239.852829,388.236877 
	C197.526382,346.218903 155.261124,304.135284 113.400864,261.654449 
	C102.468956,250.560455 77.666801,251.435532 67.801895,266.277618 
	C61.543224,275.694031 62.072662,286.331665 60.028191,296.536743 
	C58.882011,302.257965 58.021603,308.036377 57.003155,314.692932 
M441.002319,211.597748 
	C442.670929,200.122452 444.352448,188.649002 446.004242,177.171280 
	C447.423370,167.309906 448.785126,157.440262 450.214935,147.580444 
	C451.784851,136.754562 453.376678,125.931664 455.009033,115.115028 
	C456.542969,104.950584 458.195648,94.803864 459.691559,84.633980 
	C460.520935,78.995895 462.400757,73.130249 461.561157,67.715408 
	C460.190674,58.876781 455.527161,51.142326 447.559937,46.353531 
	C443.197723,43.731544 438.201202,40.325859 433.547546,40.410179 
	C423.836334,40.586140 414.160614,42.828953 404.474487,44.251110 
	C393.806976,45.817356 383.147583,47.438835 372.478363,48.993103 
	C362.455688,50.453175 352.420624,51.827923 342.398773,53.293495 
	C331.899017,54.828960 321.410919,56.443878 310.913361,57.994713 
	C299.445587,59.688885 287.870209,60.846867 276.530487,63.162861 
	C264.675110,65.584183 257.206909,73.937775 254.609207,85.238441 
	C252.280762,95.367744 253.664108,105.320084 261.923615,113.527779 
	C304.112640,155.452118 346.304596,197.378433 387.994965,239.796066 
	C398.350739,250.332474 419.407166,250.751770 430.766449,239.818069 
	C438.628693,232.250351 439.759827,222.413361 441.002319,211.597748 
z"/>
<path fill="#FFDD55" opacity="1.000000" stroke="none" 
	d="
M57.017792,314.240967 
	C58.021603,308.036377 58.882011,302.257965 60.028191,296.536743 
	C62.072662,286.331665 61.543224,275.694031 67.801895,266.277618 
	C77.666801,251.435532 102.468956,250.560455 113.400864,261.654449 
	C155.261124,304.135284 197.526382,346.218903 239.852829,388.236877 
	C248.212585,396.535736 249.698639,406.576080 247.402832,416.789856 
	C244.890976,427.964813 237.407181,436.237030 225.737473,438.835083 
	C216.565674,440.877014 207.107620,441.620239 197.787231,443.010864 
	C187.332199,444.570770 176.896820,446.263428 166.438370,447.799316 
	C156.452011,449.265869 146.441803,450.569275 136.451553,452.010071 
	C125.827065,453.542267 115.219368,455.191223 104.593620,456.714386 
	C96.529297,457.870392 88.463142,459.042206 80.369164,459.952332 
	C75.156075,460.538483 69.710846,461.680115 64.686157,460.788757 
	C53.448452,458.795166 40.633343,444.426880 40.189968,433.489624 
	C39.970337,428.071869 41.585175,422.576111 42.403728,417.120697 
	C43.922703,406.997223 45.475391,396.878815 46.997330,386.755798 
	C48.617588,375.978851 50.276173,365.207153 51.811192,354.417999 
	C53.278797,344.102600 54.621384,333.769287 55.991859,323.440308 
	C56.377872,320.531006 56.668682,317.609070 57.017792,314.240967 
z"/>
<path fill="#7CD855" opacity="1.000000" stroke="none" 
	d="
M441.001282,212.048035 
	C439.759827,222.413361 438.628693,232.250351 430.766449,239.818069 
	C419.407166,250.751770 398.350739,250.332474 387.994965,239.796066 
	C346.304596,197.378433 304.112640,155.452118 261.923615,113.527779 
	C253.664108,105.320084 252.280762,95.367744 254.609207,85.238441 
	C257.206909,73.937775 264.675110,65.584183 276.530487,63.162861 
	C287.870209,60.846867 299.445587,59.688885 310.913361,57.994713 
	C321.410919,56.443878 331.899017,54.828960 342.398773,53.293495 
	C352.420624,51.827923 362.455688,50.453175 372.478363,48.993103 
	C383.147583,47.438835 393.806976,45.817356 404.474487,44.251110 
	C414.160614,42.828953 423.836334,40.586140 433.547546,40.410179 
	C438.201202,40.325859 443.197723,43.731544 447.559937,46.353531 
	C455.527161,51.142326 460.190674,58.876781 461.561157,67.715408 
	C462.400757,73.130249 460.520935,78.995895 459.691559,84.633980 
	C458.195648,94.803864 456.542969,104.950584 455.009033,115.115028 
	C453.376678,125.931664 451.784851,136.754562 450.214935,147.580444 
	C448.785126,157.440262 447.423370,167.309906 446.004242,177.171280 
	C444.352448,188.649002 442.670929,200.122452 441.001282,212.048035 
z"/>
<path fill="#FF3131" opacity="1.000000" stroke="none" 
	d="
M242.982819,110.238739 
	C242.101181,111.215454 241.260895,112.233513 240.331940,113.162956 
	C197.167587,156.350464 153.995499,199.530258 110.196671,242.880585 
	C109.045799,243.430710 108.522575,243.811188 107.999352,244.191666 
	C90.814575,254.120422 68.001328,245.299164 63.208557,225.548019 
	C60.524548,214.487122 59.690487,202.978821 57.993710,191.676483 
	C56.078903,178.921875 54.066502,166.181564 52.218376,153.417404 
	C50.718540,143.058701 49.463638,132.664658 47.980885,122.303352 
	C46.523430,112.118866 44.904484,101.957558 43.377731,91.782883 
	C42.239403,84.196747 39.933014,76.527512 40.418674,69.042694 
	C40.769428,63.637024 44.284702,58.105022 47.410133,53.292820 
	C51.559353,46.904293 58.445595,43.556641 65.497948,41.449474 
	C68.715424,40.488125 72.633781,41.520252 76.173912,42.050793 
	C93.284210,44.615028 110.356392,47.436871 127.476021,49.934799 
	C144.619125,52.436153 161.815552,54.570816 178.964020,57.037086 
	C193.821472,59.173862 208.667496,61.410545 223.477112,63.854286 
	C243.624268,67.178787 253.535172,87.260582 245.314194,106.201012 
	C245.116470,106.656563 244.990921,107.143456 244.251465,108.004532 
	C243.441757,109.008476 243.212296,109.623611 242.982819,110.238739 
z"/>
<path fill="#004AAD" opacity="1.000000" stroke="none" 
	d="
M393.995148,258.144928 
	C413.094421,247.773071 437.958954,259.828735 440.114868,283.437378 
	C441.248932,295.856628 443.511932,308.173798 445.299561,320.532043 
	C447.181213,333.540558 449.100281,346.543640 451.009766,359.548096 
	C452.918488,372.547333 454.827667,385.546478 456.751434,398.543488 
	C458.458008,410.073212 460.909302,421.560516 461.539795,433.147736 
	C461.785889,437.670258 458.641388,442.887573 455.832703,446.953644 
	C450.873932,454.132538 444.267395,460.124298 435.242279,461.139038 
	C429.723877,461.759552 423.941010,460.370972 418.314117,459.609772 
	C407.735657,458.178711 397.182251,456.561249 386.621918,454.997803 
	C373.953613,453.122284 361.294922,451.181122 348.620911,449.345551 
	C338.212921,447.838165 327.780670,446.498108 317.373474,444.985413 
	C304.221466,443.073700 290.993347,441.526794 277.960968,438.986816 
	C257.423492,434.984009 248.001297,412.776337 257.911957,394.050476 
	C269.763824,382.608429 281.006226,371.476410 292.177917,360.273834 
	C293.032532,359.416840 293.386871,358.060944 293.973755,356.936920 
	C293.973724,356.936920 293.997162,356.994263 294.244934,356.944031 
	C294.659607,356.575562 294.826477,356.257324 294.993317,355.939087 
	C294.993317,355.939087 295.001251,356.001221 295.248962,355.948853 
	C295.662140,355.577362 295.827576,355.258240 295.992981,354.939117 
	C295.992981,354.939117 296.001160,355.001129 296.248962,354.948822 
	C296.662170,354.577393 296.827576,354.258270 296.992981,353.939117 
	C296.992981,353.939117 297.001160,354.001129 297.248901,353.948822 
	C297.662109,353.577393 297.827545,353.258240 297.992981,352.939117 
	C297.992981,352.939117 298.001160,353.001129 298.248901,352.948822 
	C298.662109,352.577393 298.827545,352.258240 298.992981,351.939117 
	C298.992981,351.939117 299.001160,352.001129 299.248901,351.948822 
	C299.662079,351.577362 299.827515,351.258240 299.992981,350.939117 
	C299.992981,350.939117 300.001160,351.001129 300.248932,350.948822 
	C300.662140,350.577393 300.827576,350.258270 300.992981,349.939117 
	C300.992981,349.939117 301.001160,350.001129 301.248901,349.948822 
	C301.662109,349.577393 301.827545,349.258240 301.992981,348.939117 
	C301.992981,348.939117 302.001160,349.001129 302.248901,348.948822 
	C302.662109,348.577393 302.827545,348.258270 302.992981,347.939117 
	C302.992981,347.939117 303.001160,348.001129 303.248901,347.948822 
	C303.662109,347.577393 303.827545,347.258240 303.992981,346.939117 
	C303.992981,346.939117 304.001160,347.001129 304.248901,346.948822 
	C304.662109,346.577393 304.827545,346.258240 304.992981,345.939117 
	C304.992981,345.939117 305.001160,346.001129 305.248901,345.948822 
	C305.662079,345.577362 305.827515,345.258240 305.992981,344.939117 
	C305.992981,344.939117 306.001160,345.001129 306.248901,344.948822 
	C306.662109,344.577393 306.827545,344.258240 306.992981,343.939117 
	C306.992981,343.939117 307.001160,344.001129 307.248901,343.948822 
	C307.662109,343.577393 307.827545,343.258240 307.992981,342.939117 
	C307.992981,342.939117 308.001160,343.001129 308.248901,342.948822 
	C308.662109,342.577362 308.827545,342.258240 308.992981,341.939117 
	C308.992981,341.939117 309.001160,342.001129 309.248932,341.948822 
	C309.662140,341.577393 309.827576,341.258270 309.992981,340.939117 
	C309.992981,340.939117 310.001160,341.001129 310.248901,340.948822 
	C310.662109,340.577393 310.827545,340.258240 310.992981,339.939117 
	C310.992981,339.939117 311.001160,340.001129 311.248901,339.948822 
	C311.662109,339.577393 311.827545,339.258270 311.992981,338.939117 
	C311.992981,338.939117 312.001160,339.001129 312.248932,338.948822 
	C312.662140,338.577393 312.827576,338.258270 312.992981,337.939117 
	C312.992981,337.939117 313.001160,338.001129 313.248901,337.948822 
	C313.662109,337.577393 313.827545,337.258240 313.992981,336.939117 
	C313.992981,336.939117 314.001160,337.001129 314.248901,336.948822 
	C314.662109,336.577362 314.827545,336.258240 314.992981,335.939117 
	C314.992981,335.939117 315.001160,336.001129 315.248901,335.948822 
	C315.662109,335.577393 315.827545,335.258240 315.992981,334.939117 
	C315.992981,334.939117 316.001160,335.001129 316.248901,334.948822 
	C316.662109,334.577393 316.827545,334.258240 316.992981,333.939117 
	C316.992981,333.939117 317.001160,334.001129 317.248901,333.948822 
	C317.662109,333.577362 317.827545,333.258240 317.992981,332.939117 
	C317.992981,332.939117 318.001160,333.001129 318.248932,332.948822 
	C318.662140,332.577393 318.827576,332.258270 318.992981,331.939117 
	C318.992981,331.939117 319.001160,332.001129 319.248901,331.948822 
	C319.662109,331.577393 319.827545,331.258240 319.992981,330.939117 
	C319.992981,330.939117 320.001160,331.001129 320.248901,330.948822 
	C320.662109,330.577362 320.827545,330.258240 320.992981,329.939117 
	C320.992981,329.939117 321.001160,330.001129 321.248932,329.948822 
	C321.662140,329.577393 321.827576,329.258270 321.992981,328.939117 
	C321.992981,328.939117 322.001160,329.001129 322.248901,328.948822 
	C322.662109,328.577393 322.827545,328.258240 322.992981,327.939117 
	C322.992981,327.939117 323.001160,328.001129 323.248901,327.948822 
	C323.662109,327.577362 323.827545,327.258240 323.992981,326.939117 
	C323.992981,326.939117 324.001160,327.001129 324.248901,326.948822 
	C324.662109,326.577393 324.827545,326.258240 324.992981,325.939117 
	C324.992981,325.939117 325.001160,326.001129 325.248901,325.948822 
	C325.662109,325.577393 325.827545,325.258240 325.992981,324.939117 
	C325.992981,324.939117 326.001160,325.001129 326.248901,324.948822 
	C326.662109,324.577362 326.827545,324.258240 326.992981,323.939117 
	C326.992981,323.939117 327.001160,324.001129 327.248932,323.948822 
	C327.662140,323.577393 327.827576,323.258270 327.992981,322.939117 
	C327.992981,322.939117 328.001160,323.001129 328.248901,322.948822 
	C328.662109,322.577393 328.827545,322.258240 328.992981,321.939117 
	C328.992981,321.939117 329.001160,322.001129 329.248901,321.948822 
	C329.662109,321.577362 329.827545,321.258240 329.992981,320.939117 
	C329.992981,320.939117 330.001160,321.001129 330.248932,320.948822 
	C330.662140,320.577393 330.827576,320.258270 330.992981,319.939117 
	C330.992981,319.939117 331.001160,320.001129 331.248901,319.948822 
	C331.662109,319.577393 331.827545,319.258240 331.992981,318.939117 
	C331.992981,318.939117 332.001160,319.001129 332.248901,318.948822 
	C332.662109,318.577362 332.827545,318.258240 332.992981,317.939117 
	C332.992981,317.939117 333.001160,318.001129 333.248901,317.948822 
	C333.662109,317.577393 333.827545,317.258240 333.992981,316.939117 
	C333.992981,316.939117 334.001160,317.001129 334.248901,316.948822 
	C334.662109,316.577393 334.827545,316.258240 334.992981,315.939117 
	C334.992981,315.939117 335.001160,316.001129 335.248901,315.948822 
	C335.662109,315.577362 335.827545,315.258240 335.992981,314.939117 
	C335.992981,314.939117 336.001160,315.001129 336.248932,314.948822 
	C336.662140,314.577393 336.827576,314.258270 336.992981,313.939117 
	C336.992981,313.939117 337.001160,314.001129 337.248901,313.948822 
	C337.662109,313.577393 337.827545,313.258240 337.992981,312.939117 
	C337.992981,312.939117 338.001160,313.001129 338.248901,312.948822 
	C338.662109,312.577362 338.827545,312.258240 338.992981,311.939117 
	C338.992981,311.939117 339.001160,312.001129 339.248932,311.948822 
	C339.662140,311.577393 339.827576,311.258270 339.992981,310.939117 
	C339.992981,310.939117 340.001160,311.001129 340.248901,310.948822 
	C340.662109,310.577393 340.827545,310.258240 340.992981,309.939117 
	C340.992981,309.939117 341.001160,310.001129 341.248901,309.948822 
	C341.662109,309.577362 341.827545,309.258240 341.992981,308.939117 
	C341.992981,308.939117 342.001160,309.001129 342.248901,308.948822 
	C342.662109,308.577393 342.827545,308.258240 342.992981,307.939117 
	C342.992981,307.939117 343.001160,308.001129 343.248901,307.948822 
	C343.662109,307.577393 343.827545,307.258240 343.992981,306.939117 
	C343.992981,306.939117 344.001160,307.001129 344.248901,306.948822 
	C344.662109,306.577362 344.827545,306.258240 344.992981,305.939117 
	C344.992981,305.939117 345.001160,306.001129 345.248932,305.948822 
	C345.662140,305.577393 345.827576,305.258270 345.992981,304.939117 
	C345.992981,304.939117 346.001160,305.001129 346.248901,304.948822 
	C346.662109,304.577393 346.827545,304.258240 346.992981,303.939117 
	C346.992981,303.939117 347.001160,304.001129 347.248901,303.948822 
	C347.662109,303.577362 347.827545,303.258240 347.992981,302.939117 
	C347.992981,302.939117 348.001160,303.001129 348.248932,302.948822 
	C348.662140,302.577393 348.827576,302.258270 348.992981,301.939117 
	C348.992981,301.939117 349.001160,302.001129 349.248901,301.948822 
	C349.662109,301.577393 349.827545,301.258240 349.992981,300.939117 
	C349.992981,300.939117 350.001160,301.001129 350.248901,300.948822 
	C350.662109,300.577393 350.827545,300.258270 350.992981,299.939117 
	C350.992981,299.939117 351.001160,300.001129 351.248901,299.948822 
	C351.662109,299.577393 351.827545,299.258240 351.992981,298.939117 
	C351.992981,298.939117 352.001160,299.001129 352.248901,298.948822 
	C352.662109,298.577393 352.827545,298.258240 352.992981,297.939117 
	C352.992981,297.939117 353.001160,298.001129 353.248901,297.948822 
	C353.662109,297.577362 353.827545,297.258240 353.992981,296.939117 
	C353.992981,296.939117 354.001160,297.001129 354.248932,296.948822 
	C354.662140,296.577393 354.827576,296.258270 354.992981,295.939117 
	C354.992981,295.939117 355.001160,296.001129 355.248901,295.948822 
	C355.662109,295.577393 355.827545,295.258240 355.992981,294.939117 
	C355.992981,294.939117 356.001160,295.001129 356.248901,294.948822 
	C356.662109,294.577362 356.827545,294.258240 356.992981,293.939117 
	C356.992981,293.939117 357.001160,294.001129 357.248932,293.948822 
	C357.662140,293.577393 357.827576,293.258270 357.992981,292.939117 
	C357.992981,292.939117 358.001160,293.001129 358.248901,292.948822 
	C358.662109,292.577393 358.827545,292.258240 358.992981,291.939117 
	C358.992981,291.939117 359.001160,292.001129 359.248901,291.948822 
	C359.662109,291.577393 359.827545,291.258270 359.992981,290.939117 
	C359.992981,290.939117 360.001160,291.001129 360.248901,290.948822 
	C360.662109,290.577393 360.827545,290.258240 360.992981,289.939117 
	C360.992981,289.939117 361.001160,290.001129 361.248901,289.948822 
	C361.662109,289.577393 361.827545,289.258240 361.992981,288.939117 
	C361.992981,288.939117 362.001160,289.001129 362.248901,288.948822 
	C362.662109,288.577362 362.827545,288.258240 362.992981,287.939117 
	C362.992981,287.939117 363.001160,288.001129 363.248901,287.948792 
	C363.662079,287.577362 363.827515,287.258240 363.992981,286.939087 
	C363.992981,286.939117 364.001160,287.001129 364.248901,286.948822 
	C364.662109,286.577393 364.827545,286.258240 364.992981,285.939117 
	C364.992981,285.939117 365.001160,286.001129 365.248901,285.948822 
	C365.662109,285.577362 365.827545,285.258240 365.992981,284.939117 
	C365.992981,284.939117 366.001160,285.001129 366.248932,284.948822 
	C366.662140,284.577393 366.827576,284.258270 366.992981,283.939117 
	C366.992981,283.939117 367.001160,284.001129 367.248901,283.948822 
	C367.662109,283.577393 367.827545,283.258240 367.992981,282.939117 
	C367.992981,282.939117 368.001160,283.001129 368.248901,282.948822 
	C368.662109,282.577393 368.827545,282.258270 368.992981,281.939117 
	C368.992981,281.939117 369.001160,282.001129 369.248901,281.948822 
	C369.662109,281.577393 369.827545,281.258240 369.992981,280.939117 
	C369.992981,280.939117 370.001160,281.001129 370.248901,280.948822 
	C370.662109,280.577393 370.827545,280.258240 370.992981,279.939117 
	C370.992981,279.939117 371.001160,280.001129 371.248901,279.948822 
	C371.662109,279.577362 371.827545,279.258240 371.992981,278.939117 
	C371.992981,278.939117 372.001160,279.001129 372.248901,278.948822 
	C372.662109,278.577393 372.827545,278.258240 372.992981,277.939117 
	C372.992981,277.939117 373.001160,278.001129 373.248901,277.948822 
	C373.662109,277.577393 373.827545,277.258240 373.992981,276.939117 
	C373.992981,276.939117 374.001160,277.001129 374.248901,276.948822 
	C374.662109,276.577362 374.827545,276.258240 374.992981,275.939117 
	C374.992981,275.939117 375.001160,276.001129 375.248901,275.948822 
	C375.662109,275.577393 375.827545,275.258240 375.992981,274.939117 
	C375.992981,274.939117 376.001160,275.001129 376.248901,274.948822 
	C376.662109,274.577393 376.827545,274.258240 376.992981,273.939117 
	C376.992981,273.939117 377.001160,274.001129 377.248901,273.948822 
	C377.662109,273.577393 377.827545,273.258270 377.992981,272.939117 
	C377.992981,272.939117 378.001160,273.001129 378.248901,272.948822 
	C378.662109,272.577393 378.827545,272.258240 378.992981,271.939117 
	C378.992981,271.939117 379.001160,272.001129 379.248901,271.948822 
	C379.662109,271.577393 379.827545,271.258240 379.992981,270.939117 
	C379.992981,270.939117 380.001160,271.001129 380.248901,270.948822 
	C380.662109,270.577362 380.827545,270.258240 380.992981,269.939117 
	C380.992981,269.939117 381.001160,270.001129 381.248901,269.948822 
	C381.662109,269.577393 381.827545,269.258240 381.992981,268.939117 
	C381.992981,268.939117 382.001160,269.001129 382.248901,268.948822 
	C382.662109,268.577393 382.827545,268.258240 382.992981,267.939117 
	C382.992981,267.939117 383.001160,268.001129 383.248901,267.948822 
	C383.662109,267.577362 383.827545,267.258240 383.992981,266.939117 
	C383.992981,266.939117 384.001160,267.001129 384.248901,266.948822 
	C384.662109,266.577393 384.827545,266.258240 384.992981,265.939117 
	C384.992981,265.939117 385.001160,266.001129 385.248901,265.948822 
	C385.662109,265.577393 385.827545,265.258240 385.992981,264.939117 
	C385.992981,264.939117 386.001160,265.001129 386.248932,264.948822 
	C386.662140,264.577393 386.827576,264.258270 386.992981,263.939117 
	C386.992981,263.939117 387.001160,264.001129 387.248901,263.948822 
	C387.662109,263.577393 387.827545,263.258240 387.992981,262.939117 
	C387.992981,262.939117 388.001160,263.001129 388.248901,262.948822 
	C388.662109,262.577393 388.827545,262.258240 388.992981,261.939117 
	C388.992981,261.939117 389.001160,262.001129 389.248901,261.948792 
	C389.662109,261.577362 389.827545,261.258240 389.992981,260.939117 
	C389.992981,260.939117 390.001160,261.001129 390.248901,260.948792 
	C390.662109,260.577362 390.827545,260.258240 390.992981,259.939117 
	C390.992981,259.939117 391.001251,260.001221 391.248505,259.947784 
	C391.660706,259.575165 391.825684,259.255981 391.990631,258.936798 
	C391.990631,258.936798 391.994507,258.997559 392.264465,259.048401 
	C393.021332,258.781158 393.508240,258.463043 393.995148,258.144928 
z"/>
<path fill="#507FC5" opacity="1.000000" stroke="none" 
	d="
M293.655304,357.048218 
	C293.386871,358.060944 293.032532,359.416840 292.177917,360.273834 
	C281.006226,371.476410 269.763824,382.608429 258.216797,393.857239 
	C258.767792,392.620758 259.444183,391.089874 260.545044,389.979980 
	C271.435425,378.999908 282.396088,368.089600 293.655304,357.048218 
z"/>
<path fill="#507FC5" opacity="1.000000" stroke="none" 
	d="
M393.680511,258.084351 
	C393.508240,258.463043 393.021332,258.781158 392.237671,259.033936 
	C392.415924,258.653656 392.890900,258.338684 393.680511,258.084351 
z"/>
<path fill="#FF5555" opacity="1.000000" stroke="none" 
	d="
M243.276703,110.065826 
	C243.212296,109.623611 243.441757,109.008476 243.941559,108.192154 
	C243.998123,108.624939 243.784363,109.258926 243.276703,110.065826 
z"/>
<path fill="#FF5555" opacity="1.000000" stroke="none" 
	d="
M108.326431,244.105164 
	C108.522575,243.811188 109.045799,243.430710 109.903793,243.016571 
	C109.710213,243.328171 109.181862,243.673401 108.326431,244.105164 
z"/>
<path fill="#507FC5" opacity="1.000000" stroke="none" 
	d="
M318.733795,332.015778 
	C318.827576,332.258270 318.662140,332.577393 318.217896,332.944885 
	C318.117615,332.692963 318.296082,332.392700 318.733795,332.015778 
z"/>
<path fill="#507FC5" opacity="1.000000" stroke="none" 
	d="
M341.733765,309.015778 
	C341.827545,309.258240 341.662109,309.577362 341.217896,309.944885 
	C341.117584,309.692963 341.296082,309.392700 341.733765,309.015778 
z"/>
<path fill="#507FC5" opacity="1.000000" stroke="none" 
	d="
M319.733765,331.015778 
	C319.827545,331.258240 319.662109,331.577393 319.217896,331.944885 
	C319.117615,331.692963 319.296112,331.392700 319.733765,331.015778 
z"/>
<path fill="#507FC5" opacity="1.000000" stroke="none" 
	d="
M320.733795,330.015778 
	C320.827545,330.258240 320.662109,330.577362 320.217896,330.944885 
	C320.117615,330.692963 320.296112,330.392700 320.733795,330.015778 
z"/>
<path fill="#507FC5" opacity="1.000000" stroke="none" 
	d="
M321.733795,329.015778 
	C321.827576,329.258270 321.662140,329.577393 321.217896,329.944885 
	C321.117615,329.692963 321.296082,329.392700 321.733795,329.015778 
z"/>
<path fill="#507FC5" opacity="1.000000" stroke="none" 
	d="
M322.733765,328.015778 
	C322.827545,328.258240 322.662109,328.577393 322.217896,328.944885 
	C322.117584,328.692963 322.296082,328.392700 322.733765,328.015778 
z"/>
<path fill="#507FC5" opacity="1.000000" stroke="none" 
	d="
M323.733765,327.015778 
	C323.827545,327.258240 323.662109,327.577362 323.217896,327.944885 
	C323.117615,327.692963 323.296082,327.392700 323.733765,327.015778 
z"/>
<path fill="#507FC5" opacity="1.000000" stroke="none" 
	d="
M324.733765,326.015778 
	C324.827545,326.258240 324.662109,326.577393 324.217896,326.944885 
	C324.117615,326.692963 324.296112,326.392700 324.733765,326.015778 
z"/>
<path fill="#507FC5" opacity="1.000000" stroke="none" 
	d="
M325.733795,325.015778 
	C325.827545,325.258240 325.662109,325.577393 325.217896,325.944885 
	C325.117615,325.692963 325.296112,325.392700 325.733795,325.015778 
z"/>
<path fill="#507FC5" opacity="1.000000" stroke="none" 
	d="
M326.733765,324.015778 
	C326.827545,324.258240 326.662109,324.577362 326.217896,324.944885 
	C326.117615,324.692963 326.296082,324.392700 326.733765,324.015778 
z"/>
<path fill="#507FC5" opacity="1.000000" stroke="none" 
	d="
M327.733795,323.015778 
	C327.827576,323.258270 327.662140,323.577393 327.217896,323.944885 
	C327.117584,323.692963 327.296082,323.392700 327.733795,323.015778 
z"/>
<path fill="#507FC5" opacity="1.000000" stroke="none" 
	d="
M328.733765,322.015778 
	C328.827545,322.258240 328.662109,322.577393 328.217896,322.944885 
	C328.117615,322.692963 328.296082,322.392700 328.733765,322.015778 
z"/>
<path fill="#507FC5" opacity="1.000000" stroke="none" 
	d="
M329.733765,321.015778 
	C329.827545,321.258240 329.662109,321.577362 329.217896,321.944885 
	C329.117615,321.692963 329.296112,321.392700 329.733765,321.015778 
z"/>
<path fill="#507FC5" opacity="1.000000" stroke="none" 
	d="
M330.733795,320.015778 
	C330.827576,320.258270 330.662140,320.577393 330.217896,320.944885 
	C330.117615,320.692963 330.296082,320.392700 330.733795,320.015778 
z"/>
<path fill="#507FC5" opacity="1.000000" stroke="none" 
	d="
M331.733765,319.015778 
	C331.827545,319.258240 331.662109,319.577393 331.217896,319.944885 
	C331.117584,319.692963 331.296082,319.392700 331.733765,319.015778 
z"/>
<path fill="#507FC5" opacity="1.000000" stroke="none" 
	d="
M332.733765,318.015778 
	C332.827545,318.258240 332.662109,318.577362 332.217896,318.944885 
	C332.117584,318.692963 332.296082,318.392700 332.733765,318.015778 
z"/>
<path fill="#507FC5" opacity="1.000000" stroke="none" 
	d="
M333.733765,317.015778 
	C333.827545,317.258240 333.662109,317.577393 333.217896,317.944885 
	C333.117615,317.692963 333.296082,317.392700 333.733765,317.015778 
z"/>
<path fill="#507FC5" opacity="1.000000" stroke="none" 
	d="
M334.733765,316.015778 
	C334.827545,316.258240 334.662109,316.577393 334.217896,316.944885 
	C334.117615,316.692963 334.296112,316.392700 334.733765,316.015778 
z"/>
<path fill="#507FC5" opacity="1.000000" stroke="none" 
	d="
M335.733765,315.015778 
	C335.827545,315.258240 335.662109,315.577362 335.217896,315.944885 
	C335.117615,315.692963 335.296082,315.392700 335.733765,315.015778 
z"/>
<path fill="#507FC5" opacity="1.000000" stroke="none" 
	d="
M336.733765,314.015778 
	C336.827576,314.258270 336.662140,314.577393 336.217896,314.944885 
	C336.117584,314.692963 336.296082,314.392700 336.733765,314.015778 
z"/>
<path fill="#507FC5" opacity="1.000000" stroke="none" 
	d="
M337.733765,313.015778 
	C337.827545,313.258240 337.662109,313.577393 337.217896,313.944885 
	C337.117584,313.692963 337.296082,313.392700 337.733765,313.015778 
z"/>
<path fill="#507FC5" opacity="1.000000" stroke="none" 
	d="
M338.733765,312.015778 
	C338.827545,312.258240 338.662109,312.577362 338.217896,312.944885 
	C338.117615,312.692963 338.296112,312.392700 338.733765,312.015778 
z"/>
<path fill="#507FC5" opacity="1.000000" stroke="none" 
	d="
M339.733826,311.015778 
	C339.827576,311.258270 339.662140,311.577393 339.217926,311.944885 
	C339.117615,311.692963 339.296112,311.392700 339.733826,311.015778 
z"/>
<path fill="#507FC5" opacity="1.000000" stroke="none" 
	d="
M340.733765,310.015778 
	C340.827545,310.258240 340.662109,310.577393 340.217896,310.944885 
	C340.117615,310.692963 340.296082,310.392700 340.733765,310.015778 
z"/>
<path fill="#507FC5" opacity="1.000000" stroke="none" 
	d="
M342.733765,308.015778 
	C342.827545,308.258240 342.662109,308.577393 342.217896,308.944885 
	C342.117615,308.692963 342.296082,308.392700 342.733765,308.015778 
z"/>
<path fill="#507FC5" opacity="1.000000" stroke="none" 
	d="
M305.733765,345.015778 
	C305.827515,345.258240 305.662079,345.577362 305.217865,345.944885 
	C305.117584,345.692963 305.296082,345.392700 305.733765,345.015778 
z"/>
<path fill="#507FC5" opacity="1.000000" stroke="none" 
	d="
M294.734344,356.015442 
	C294.826477,356.257324 294.659607,356.575562 294.214050,356.941650 
	C294.115387,356.690247 294.295380,356.391022 294.734344,356.015442 
z"/>
<path fill="#507FC5" opacity="1.000000" stroke="none" 
	d="
M295.733765,355.015778 
	C295.827576,355.258240 295.662140,355.577362 295.217896,355.944855 
	C295.117584,355.692963 295.296051,355.392700 295.733765,355.015778 
z"/>
<path fill="#507FC5" opacity="1.000000" stroke="none" 
	d="
M296.733765,354.015778 
	C296.827576,354.258270 296.662170,354.577393 296.217957,354.944885 
	C296.117584,354.692963 296.296051,354.392700 296.733765,354.015778 
z"/>
<path fill="#507FC5" opacity="1.000000" stroke="none" 
	d="
M297.733765,353.015778 
	C297.827545,353.258240 297.662109,353.577393 297.217896,353.944885 
	C297.117615,353.692963 297.296082,353.392700 297.733765,353.015778 
z"/>
<path fill="#507FC5" opacity="1.000000" stroke="none" 
	d="
M298.733765,352.015778 
	C298.827545,352.258240 298.662109,352.577393 298.217896,352.944885 
	C298.117584,352.692963 298.296082,352.392700 298.733765,352.015778 
z"/>
<path fill="#507FC5" opacity="1.000000" stroke="none" 
	d="
M299.733765,351.015778 
	C299.827515,351.258240 299.662079,351.577362 299.217896,351.944885 
	C299.117615,351.692963 299.296082,351.392700 299.733765,351.015778 
z"/>
<path fill="#507FC5" opacity="1.000000" stroke="none" 
	d="
M300.733795,350.015778 
	C300.827576,350.258270 300.662140,350.577393 300.217896,350.944885 
	C300.117615,350.692963 300.296112,350.392700 300.733795,350.015778 
z"/>
<path fill="#507FC5" opacity="1.000000" stroke="none" 
	d="
M301.733795,349.015778 
	C301.827545,349.258240 301.662109,349.577393 301.217896,349.944885 
	C301.117615,349.692963 301.296112,349.392700 301.733795,349.015778 
z"/>
<path fill="#507FC5" opacity="1.000000" stroke="none" 
	d="
M302.733765,348.015778 
	C302.827545,348.258270 302.662109,348.577393 302.217896,348.944885 
	C302.117615,348.692963 302.296082,348.392700 302.733765,348.015778 
z"/>
<path fill="#507FC5" opacity="1.000000" stroke="none" 
	d="
M303.733765,347.015778 
	C303.827545,347.258240 303.662109,347.577393 303.217896,347.944885 
	C303.117584,347.692963 303.296082,347.392700 303.733765,347.015778 
z"/>
<path fill="#507FC5" opacity="1.000000" stroke="none" 
	d="
M304.733765,346.015778 
	C304.827545,346.258240 304.662109,346.577393 304.217896,346.944885 
	C304.117615,346.692963 304.296082,346.392700 304.733765,346.015778 
z"/>
<path fill="#507FC5" opacity="1.000000" stroke="none" 
	d="
M317.733765,333.015778 
	C317.827545,333.258240 317.662109,333.577362 317.217896,333.944885 
	C317.117584,333.692963 317.296082,333.392700 317.733765,333.015778 
z"/>
<path fill="#507FC5" opacity="1.000000" stroke="none" 
	d="
M306.733795,344.015778 
	C306.827545,344.258240 306.662109,344.577393 306.217896,344.944885 
	C306.117615,344.692963 306.296112,344.392700 306.733795,344.015778 
z"/>
<path fill="#507FC5" opacity="1.000000" stroke="none" 
	d="
M307.733765,343.015778 
	C307.827545,343.258240 307.662109,343.577393 307.217896,343.944885 
	C307.117615,343.692963 307.296112,343.392700 307.733765,343.015778 
z"/>
<path fill="#507FC5" opacity="1.000000" stroke="none" 
	d="
M308.733765,342.015778 
	C308.827545,342.258240 308.662109,342.577362 308.217896,342.944885 
	C308.117584,342.692963 308.296082,342.392700 308.733765,342.015778 
z"/>
<path fill="#507FC5" opacity="1.000000" stroke="none" 
	d="
M309.733795,341.015778 
	C309.827576,341.258270 309.662140,341.577393 309.217896,341.944885 
	C309.117615,341.692963 309.296082,341.392700 309.733795,341.015778 
z"/>
<path fill="#507FC5" opacity="1.000000" stroke="none" 
	d="
M310.733765,340.015778 
	C310.827545,340.258240 310.662109,340.577393 310.217896,340.944885 
	C310.117615,340.692963 310.296112,340.392700 310.733765,340.015778 
z"/>
<path fill="#507FC5" opacity="1.000000" stroke="none" 
	d="
M311.733795,339.015778 
	C311.827545,339.258270 311.662109,339.577393 311.217896,339.944885 
	C311.117615,339.692963 311.296112,339.392700 311.733795,339.015778 
z"/>
<path fill="#507FC5" opacity="1.000000" stroke="none" 
	d="
M312.733765,338.015778 
	C312.827576,338.258270 312.662140,338.577393 312.217896,338.944885 
	C312.117584,338.692963 312.296082,338.392700 312.733765,338.015778 
z"/>
<path fill="#507FC5" opacity="1.000000" stroke="none" 
	d="
M313.733765,337.015778 
	C313.827545,337.258240 313.662109,337.577393 313.217896,337.944885 
	C313.117584,337.692963 313.296082,337.392700 313.733765,337.015778 
z"/>
<path fill="#507FC5" opacity="1.000000" stroke="none" 
	d="
M314.733765,336.015778 
	C314.827545,336.258240 314.662109,336.577362 314.217896,336.944885 
	C314.117615,336.692963 314.296082,336.392700 314.733765,336.015778 
z"/>
<path fill="#507FC5" opacity="1.000000" stroke="none" 
	d="
M315.733765,335.015778 
	C315.827545,335.258240 315.662109,335.577393 315.217896,335.944885 
	C315.117615,335.692963 315.296112,335.392700 315.733765,335.015778 
z"/>
<path fill="#507FC5" opacity="1.000000" stroke="none" 
	d="
M316.733765,334.015778 
	C316.827545,334.258240 316.662109,334.577393 316.217896,334.944885 
	C316.117615,334.692963 316.296082,334.392700 316.733765,334.015778 
z"/>
<path fill="#507FC5" opacity="1.000000" stroke="none" 
	d="
M379.733765,271.015778 
	C379.827545,271.258240 379.662109,271.577393 379.217896,271.944885 
	C379.117615,271.692963 379.296112,271.392700 379.733765,271.015778 
z"/>
<path fill="#507FC5" opacity="1.000000" stroke="none" 
	d="
M367.733765,283.015778 
	C367.827545,283.258240 367.662109,283.577393 367.217896,283.944885 
	C367.117615,283.692963 367.296112,283.392700 367.733765,283.015778 
z"/>
<path fill="#507FC5" opacity="1.000000" stroke="none" 
	d="
M368.733765,282.015778 
	C368.827545,282.258270 368.662109,282.577393 368.217896,282.944885 
	C368.117615,282.692963 368.296082,282.392700 368.733765,282.015778 
z"/>
<path fill="#507FC5" opacity="1.000000" stroke="none" 
	d="
M369.733765,281.015778 
	C369.827545,281.258240 369.662109,281.577393 369.217896,281.944885 
	C369.117615,281.692963 369.296112,281.392700 369.733765,281.015778 
z"/>
<path fill="#507FC5" opacity="1.000000" stroke="none" 
	d="
M370.733765,280.015778 
	C370.827545,280.258240 370.662109,280.577393 370.217896,280.944885 
	C370.117584,280.692963 370.296082,280.392700 370.733765,280.015778 
z"/>
<path fill="#507FC5" opacity="1.000000" stroke="none" 
	d="
M371.733765,279.015778 
	C371.827545,279.258240 371.662109,279.577362 371.217896,279.944885 
	C371.117615,279.692963 371.296082,279.392700 371.733765,279.015778 
z"/>
<path fill="#507FC5" opacity="1.000000" stroke="none" 
	d="
M372.733765,278.015778 
	C372.827545,278.258240 372.662109,278.577393 372.217896,278.944885 
	C372.117615,278.692963 372.296112,278.392700 372.733765,278.015778 
z"/>
<path fill="#507FC5" opacity="1.000000" stroke="none" 
	d="
M373.733765,277.015747 
	C373.827545,277.258240 373.662109,277.577393 373.217896,277.944855 
	C373.117584,277.692932 373.296051,277.392670 373.733765,277.015747 
z"/>
<path fill="#507FC5" opacity="1.000000" stroke="none" 
	d="
M374.733765,276.015778 
	C374.827545,276.258240 374.662109,276.577362 374.217896,276.944885 
	C374.117615,276.692963 374.296112,276.392700 374.733765,276.015778 
z"/>
<path fill="#507FC5" opacity="1.000000" stroke="none" 
	d="
M375.733765,275.015778 
	C375.827545,275.258240 375.662109,275.577393 375.217896,275.944885 
	C375.117584,275.692963 375.296082,275.392700 375.733765,275.015778 
z"/>
<path fill="#507FC5" opacity="1.000000" stroke="none" 
	d="
M376.733765,274.015778 
	C376.827545,274.258240 376.662109,274.577393 376.217896,274.944885 
	C376.117615,274.692963 376.296082,274.392700 376.733765,274.015778 
z"/>
<path fill="#507FC5" opacity="1.000000" stroke="none" 
	d="
M377.733765,273.015778 
	C377.827545,273.258270 377.662109,273.577393 377.217896,273.944885 
	C377.117584,273.692963 377.296082,273.392700 377.733765,273.015778 
z"/>
<path fill="#507FC5" opacity="1.000000" stroke="none" 
	d="
M378.733795,272.015808 
	C378.827545,272.258240 378.662109,272.577393 378.217896,272.944885 
	C378.117645,272.692993 378.296112,272.392731 378.733795,272.015808 
z"/>
<path fill="#507FC5" opacity="1.000000" stroke="none" 
	d="
M366.733795,284.015778 
	C366.827576,284.258270 366.662140,284.577393 366.217896,284.944885 
	C366.117615,284.692963 366.296082,284.392700 366.733795,284.015778 
z"/>
<path fill="#507FC5" opacity="1.000000" stroke="none" 
	d="
M380.733765,270.015778 
	C380.827545,270.258240 380.662109,270.577362 380.217896,270.944885 
	C380.117615,270.692963 380.296082,270.392700 380.733765,270.015778 
z"/>
<path fill="#507FC5" opacity="1.000000" stroke="none" 
	d="
M381.733765,269.015778 
	C381.827545,269.258240 381.662109,269.577393 381.217896,269.944885 
	C381.117615,269.692963 381.296112,269.392700 381.733765,269.015778 
z"/>
<path fill="#507FC5" opacity="1.000000" stroke="none" 
	d="
M382.733765,268.015778 
	C382.827545,268.258240 382.662109,268.577393 382.217896,268.944885 
	C382.117584,268.692963 382.296082,268.392700 382.733765,268.015778 
z"/>
<path fill="#507FC5" opacity="1.000000" stroke="none" 
	d="
M383.733795,267.015808 
	C383.827545,267.258240 383.662109,267.577362 383.217896,267.944885 
	C383.117645,267.692993 383.296112,267.392731 383.733795,267.015808 
z"/>
<path fill="#507FC5" opacity="1.000000" stroke="none" 
	d="
M384.733765,266.015778 
	C384.827545,266.258240 384.662109,266.577393 384.217896,266.944885 
	C384.117584,266.692963 384.296082,266.392700 384.733765,266.015778 
z"/>
<path fill="#507FC5" opacity="1.000000" stroke="none" 
	d="
M385.733765,265.015778 
	C385.827545,265.258240 385.662109,265.577393 385.217896,265.944885 
	C385.117615,265.692963 385.296082,265.392700 385.733765,265.015778 
z"/>
<path fill="#507FC5" opacity="1.000000" stroke="none" 
	d="
M386.733795,264.015778 
	C386.827576,264.258270 386.662140,264.577393 386.217896,264.944885 
	C386.117615,264.692963 386.296112,264.392700 386.733795,264.015778 
z"/>
<path fill="#507FC5" opacity="1.000000" stroke="none" 
	d="
M387.733795,263.015778 
	C387.827545,263.258240 387.662109,263.577393 387.217896,263.944885 
	C387.117615,263.692963 387.296112,263.392700 387.733795,263.015778 
z"/>
<path fill="#507FC5" opacity="1.000000" stroke="none" 
	d="
M388.733765,262.015778 
	C388.827545,262.258240 388.662109,262.577393 388.217896,262.944885 
	C388.117615,262.692963 388.296112,262.392700 388.733765,262.015778 
z"/>
<path fill="#507FC5" opacity="1.000000" stroke="none" 
	d="
M389.733765,261.015778 
	C389.827545,261.258240 389.662109,261.577362 389.217896,261.944855 
	C389.117584,261.692963 389.296051,261.392700 389.733765,261.015778 
z"/>
<path fill="#507FC5" opacity="1.000000" stroke="none" 
	d="
M390.733765,260.015778 
	C390.827545,260.258240 390.662109,260.577362 390.217896,260.944855 
	C390.117615,260.692963 390.296082,260.392700 390.733765,260.015778 
z"/>
<path fill="#507FC5" opacity="1.000000" stroke="none" 
	d="
M354.733795,296.015778 
	C354.827576,296.258270 354.662140,296.577393 354.217896,296.944885 
	C354.117615,296.692963 354.296082,296.392700 354.733795,296.015778 
z"/>
<path fill="#507FC5" opacity="1.000000" stroke="none" 
	d="
M343.733765,307.015778 
	C343.827545,307.258240 343.662109,307.577393 343.217896,307.944885 
	C343.117615,307.692963 343.296112,307.392700 343.733765,307.015778 
z"/>
<path fill="#507FC5" opacity="1.000000" stroke="none" 
	d="
M344.733765,306.015778 
	C344.827545,306.258240 344.662109,306.577362 344.217896,306.944885 
	C344.117584,306.692963 344.296082,306.392700 344.733765,306.015778 
z"/>
<path fill="#507FC5" opacity="1.000000" stroke="none" 
	d="
M345.733765,305.015778 
	C345.827576,305.258270 345.662140,305.577393 345.217896,305.944885 
	C345.117584,305.692963 345.296082,305.392700 345.733765,305.015778 
z"/>
<path fill="#507FC5" opacity="1.000000" stroke="none" 
	d="
M346.733765,304.015778 
	C346.827545,304.258240 346.662109,304.577393 346.217896,304.944885 
	C346.117584,304.692963 346.296082,304.392700 346.733765,304.015778 
z"/>
<path fill="#507FC5" opacity="1.000000" stroke="none" 
	d="
M347.733765,303.015778 
	C347.827545,303.258240 347.662109,303.577362 347.217896,303.944885 
	C347.117615,303.692963 347.296082,303.392700 347.733765,303.015778 
z"/>
<path fill="#507FC5" opacity="1.000000" stroke="none" 
	d="
M348.733795,302.015778 
	C348.827576,302.258270 348.662140,302.577393 348.217896,302.944885 
	C348.117615,302.692963 348.296112,302.392700 348.733795,302.015778 
z"/>
<path fill="#507FC5" opacity="1.000000" stroke="none" 
	d="
M349.733765,301.015778 
	C349.827545,301.258240 349.662109,301.577393 349.217896,301.944885 
	C349.117615,301.692963 349.296082,301.392700 349.733765,301.015778 
z"/>
<path fill="#507FC5" opacity="1.000000" stroke="none" 
	d="
M350.733765,300.015778 
	C350.827545,300.258270 350.662109,300.577393 350.217896,300.944885 
	C350.117584,300.692963 350.296082,300.392700 350.733765,300.015778 
z"/>
<path fill="#507FC5" opacity="1.000000" stroke="none" 
	d="
M351.733795,299.015778 
	C351.827545,299.258240 351.662109,299.577393 351.217896,299.944885 
	C351.117615,299.692963 351.296112,299.392700 351.733795,299.015778 
z"/>
<path fill="#507FC5" opacity="1.000000" stroke="none" 
	d="
M352.733765,298.015778 
	C352.827545,298.258240 352.662109,298.577393 352.217896,298.944885 
	C352.117615,298.692963 352.296082,298.392700 352.733765,298.015778 
z"/>
<path fill="#507FC5" opacity="1.000000" stroke="none" 
	d="
M353.733765,297.015778 
	C353.827545,297.258240 353.662109,297.577362 353.217896,297.944885 
	C353.117615,297.692963 353.296112,297.392700 353.733765,297.015778 
z"/>
<path fill="#507FC5" opacity="1.000000" stroke="none" 
	d="
M391.731995,259.014771 
	C391.825684,259.255981 391.660706,259.575165 391.217407,259.943909 
	C391.117188,259.693237 391.295258,259.392975 391.731995,259.014771 
z"/>
<path fill="#507FC5" opacity="1.000000" stroke="none" 
	d="
M355.733765,295.015778 
	C355.827545,295.258240 355.662109,295.577393 355.217896,295.944885 
	C355.117584,295.692963 355.296082,295.392700 355.733765,295.015778 
z"/>
<path fill="#507FC5" opacity="1.000000" stroke="none" 
	d="
M356.733765,294.015778 
	C356.827545,294.258240 356.662109,294.577362 356.217896,294.944885 
	C356.117584,294.692963 356.296082,294.392700 356.733765,294.015778 
z"/>
<path fill="#507FC5" opacity="1.000000" stroke="none" 
	d="
M357.733795,293.015778 
	C357.827576,293.258270 357.662140,293.577393 357.217896,293.944885 
	C357.117615,293.692963 357.296112,293.392700 357.733795,293.015778 
z"/>
<path fill="#507FC5" opacity="1.000000" stroke="none" 
	d="
M358.733795,292.015778 
	C358.827545,292.258240 358.662109,292.577393 358.217896,292.944885 
	C358.117615,292.692963 358.296112,292.392700 358.733795,292.015778 
z"/>
<path fill="#507FC5" opacity="1.000000" stroke="none" 
	d="
M359.733765,291.015778 
	C359.827545,291.258270 359.662109,291.577393 359.217896,291.944885 
	C359.117584,291.692963 359.296082,291.392700 359.733765,291.015778 
z"/>
<path fill="#507FC5" opacity="1.000000" stroke="none" 
	d="
M360.733765,290.015778 
	C360.827545,290.258240 360.662109,290.577393 360.217896,290.944885 
	C360.117615,290.692963 360.296112,290.392700 360.733765,290.015778 
z"/>
<path fill="#507FC5" opacity="1.000000" stroke="none" 
	d="
M361.733765,289.015778 
	C361.827545,289.258240 361.662109,289.577393 361.217896,289.944885 
	C361.117615,289.692963 361.296082,289.392700 361.733765,289.015778 
z"/>
<path fill="#507FC5" opacity="1.000000" stroke="none" 
	d="
M362.733765,288.015778 
	C362.827545,288.258240 362.662109,288.577362 362.217896,288.944885 
	C362.117615,288.692963 362.296112,288.392700 362.733765,288.015778 
z"/>
<path fill="#507FC5" opacity="1.000000" stroke="none" 
	d="
M363.733765,287.015747 
	C363.827515,287.258240 363.662079,287.577362 363.217896,287.944855 
	C363.117584,287.692963 363.296082,287.392700 363.733765,287.015747 
z"/>
<path fill="#507FC5" opacity="1.000000" stroke="none" 
	d="
M364.733765,286.015778 
	C364.827545,286.258240 364.662109,286.577393 364.217896,286.944885 
	C364.117584,286.692963 364.296082,286.392700 364.733765,286.015778 
z"/>
<path fill="#507FC5" opacity="1.000000" stroke="none" 
	d="
M365.733765,285.015778 
	C365.827545,285.258240 365.662109,285.577362 365.217896,285.944885 
	C365.117615,285.692963 365.296112,285.392700 365.733765,285.015778 
z"/>
</svg>